<?xml version="1.0" encoding="utf-8"?>
<!-- Generator: Adobe Illustrator 14.0.0, SVG Export Plug-In . SVG Version: 6.00 Build 43363)  -->
<!DOCTYPE svg PUBLIC "-//W3C//DTD SVG 1.1//EN" "http://www.w3.org/Graphics/SVG/1.1/DTD/svg11.dtd">
<svg version="1.1" id="Layer_1" xmlns="http://www.w3.org/2000/svg" xmlns:xlink="http://www.w3.org/1999/xlink" x="0px" y="0px"
	 width="65px" height="40px" viewBox="0 0 65 40" enable-background="new 0 0 65 40" xml:space="preserve">
<g>
	<g>
		<path fill="#FFFFFF" d="M17.737,30.224c1.322-1.101,1.548-2.465,1.548-3.688v-5.143h-7.178v6.979c0,0.996-0.809,1.806-1.806,1.806
			c-0.997,0-1.737-0.81-1.737-1.806V8.605c0-0.998,0.741-1.806,1.737-1.806c0.997,0,1.806,0.808,1.806,1.806v7.019h7.169V8.343l0,0
			c0-4.024-2.629-7.335-9.035-7.343l0,0C3.663,1,1.178,4.327,1.177,8.352v20.636c0,3.99,3.166,7.009,7.216,7.007h2.225
			L17.737,30.224z"/>
		<polygon fill="#FFFFFF" points="46.04,31.034 46.04,8.355 41.086,8.355 41.086,1.673 59.017,1.673 59.017,8.355 54.038,8.355 54.038,35.953 
			51.915,35.953 		"/>
		<polygon fill="#FFCD11" points="49.251,36 31.792,21.371 13.696,36 		"/>
		<path fill="#FFFFFF" d="M36.775,1.712H26.771l-5.829,26.146l10.852-8.756l11.314,9.479L36.775,1.712z M29.859,17.424l1.936-9.882l1.922,9.882
			H29.859z"/>
	</g>
	<path fill="#FFFFFF" d="M65,3.396c0,1.051-0.839,1.899-1.885,1.899c-1.053,0-1.897-0.849-1.897-1.899c0-1.052,0.846-1.89,1.897-1.89
		C64.161,1.507,65,2.345,65,3.396z M64.644,3.396c0-0.849-0.69-1.535-1.527-1.535c-0.854,0-1.539,0.687-1.539,1.535
		s0.685,1.545,1.539,1.545C63.952,4.939,64.644,4.244,64.644,3.396z M62.876,4.488h-0.499v-2.2h0.92
		c0.341,0,0.561,0.202,0.561,0.579c0,0.279-0.117,0.488-0.441,0.539v0.01c0.104,0.005,0.431,0.029,0.431,0.427
		c0,0.142,0.012,0.554,0.057,0.646h-0.486c-0.066-0.133-0.066-0.279-0.066-0.428c0-0.259,0.04-0.481-0.346-0.481h-0.127v0.909
		H62.876z M62.876,3.27h0.223c0.198,0,0.26-0.184,0.26-0.326c0-0.207-0.102-0.289-0.26-0.289h-0.223V3.27z"/>
</g>
</svg>
